<svg width="44" height="44" viewBox="0 0 44 44" fill="none" xmlns="http://www.w3.org/2000/svg">
<path d="M38.7391 15.063L27.9078 13.4889L23.066 3.67293C22.9337 3.40417 22.7162 3.18661 22.4474 3.05437C21.7734 2.72162 20.9543 2.99891 20.6173 3.67293L15.7754 13.4889L4.94418 15.063C4.64557 15.1057 4.37254 15.2465 4.16351 15.4598C3.9108 15.7195 3.77155 16.0689 3.77635 16.4313C3.78115 16.7937 3.92961 17.1393 4.18911 17.3922L12.0257 25.0326L10.1742 35.8212C10.1308 36.0721 10.1586 36.3302 10.2544 36.5662C10.3502 36.8022 10.5102 37.0066 10.7163 37.1563C10.9224 37.306 11.1663 37.3949 11.4203 37.413C11.6744 37.4312 11.9284 37.3777 12.1536 37.2588L21.8416 32.1652L31.5296 37.2588C31.7941 37.3996 32.1013 37.4465 32.3956 37.3953C33.1379 37.2673 33.637 36.5634 33.509 35.8212L31.6576 25.0326L39.4942 17.3922C39.7075 17.1832 39.8482 16.9102 39.8909 16.6116C40.0061 15.865 39.4856 15.1739 38.7391 15.063Z" fill="#FDA202"/>
</svg>
